# xmcd
#
# Track frame offsets:
# 150
# 11851
# 20260
# 29645
# 42780
# 54865
# 61893
# 67295
# 79347
# 96992
#
# Disc length: 1433 seconds
#
#
# Revision: 0
# Processed by: cddbd v1.5.2PL0 Copyright (c) Steve Scherf et al.
# Submitted via: FreeRIP 2.945 
#
DISCID=8405970a
DTITLE=B.J. Berg - King Of The Fools
DYEAR=1900
DGENRE=Country
TTITLE0=Smoke Along The Track
TTITLE1=Checkmate
TTITLE2=The Laughing Song
TTITLE3=Nobody Cares
TTITLE4=Whole Lotta Shakin'
TTITLE5=The Laughing Song 2
TTITLE6=King Of The Fools
TTITLE7=Merv's Theme
TTITLE8=Walk Through This World With Me
TTITLE9=Stop
EXTD=
EXTT0=
EXTT1=
EXTT2=
EXTT3=
EXTT4=
EXTT5=
EXTT6=
EXTT7=
EXTT8=
EXTT9=
PLAYORDER=
